<?xml version="1.0"?>
<svg version="1.1" xmlns="http://www.w3.org/2000/svg" width="400" height="200" style=""><path fill="#1392ed" d="M25.978515625,116.7890625l-4.8125-15.681640625l-0.123046875,0q0.259765625,4.78515625,0.259765625,6.384765625l0,9.296875l-3.787109375,0l0-19.98828125l5.76953125,0l4.73046875,15.28515625l0.08203125,0l5.017578125-15.28515625l5.76953125,0l0,19.98828125l-3.951171875,0l0-9.4609375q0-0.669921875,0.0205078125-1.544921875t0.1845703125-4.6484375l-0.123046875,0l-5.154296875,15.654296875l-3.8828125,0z M48.83474609375,109.119140625q0,2.26953125,0.7451171875,3.431640625t2.4267578125,1.162109375q1.66796875,0,2.3994140625-1.1552734375t0.7314453125-3.4384765625q0-2.26953125-0.73828125-3.404296875t-2.419921875-1.134765625q-1.66796875,0-2.40625,1.1279296875t-0.73828125,3.4111328125z M59.40310546875,109.119140625q0,3.732421875-1.96875,5.837890625t-5.482421875,2.10546875q-2.201171875,0-3.8828125-0.9638671875t-2.583984375-2.7685546875t-0.90234375-4.2109375q0-3.74609375,1.955078125-5.82421875t5.49609375-2.078125q2.201171875,0,3.8828125,0.95703125t2.583984375,2.748046875t0.90234375,4.197265625z M68.4097265625,116.7890625l-5.82421875-15.28515625l4.361328125,0l2.953125,8.708984375q0.4921875,1.654296875,0.615234375,3.130859375l0.08203125,0q0.068359375-1.3125,0.615234375-3.130859375l2.939453125-8.708984375l4.361328125,0l-5.82421875,15.28515625l-4.279296875,0z M82.44759765625,97.552734375q0-2.037109375,2.26953125-2.037109375t2.26953125,2.037109375q0,0.970703125-0.5673828125,1.5107421875t-1.7021484375,0.5400390625q-2.26953125,0-2.26953125-2.05078125z M86.79525390625,116.7890625l-4.169921875,0l0-15.28515625l4.169921875,0l0,15.28515625z M99.424921875,104.18359375q-1.326171875,0-2.078125,0.8408203125t-0.861328125,2.3857421875l5.8515625,0q-0.02734375-1.544921875-0.806640625-2.3857421875t-2.10546875-0.8408203125z M100.0128125,117.0625q-3.69140625,0-5.76953125-2.037109375t-2.078125-5.76953125q0-3.841796875,1.9208984375-5.9404296875t5.3115234375-2.0986328125q3.240234375,0,5.044921875,1.845703125t1.8046875,5.099609375l0,2.0234375l-9.857421875,0q0.068359375,1.77734375,1.052734375,2.775390625t2.76171875,0.998046875q1.380859375,0,2.611328125-0.287109375t2.5703125-0.916015625l0,3.2265625q-1.09375,0.546875-2.337890625,0.8134765625t-3.03515625,0.2666015625z M116.40224609375,117.0625q-2.693359375,0-4.2314453125-2.091796875t-1.5380859375-5.796875q0-3.759765625,1.5654296875-5.8583984375t4.3134765625-2.0986328125q2.884765625,0,4.40234375,2.2421875l0.13671875,0q-0.314453125-1.708984375-0.314453125-3.048828125l0-4.89453125l4.18359375,0l0,21.2734375l-3.19921875,0l-0.806640625-1.982421875l-0.177734375,0q-1.421875,2.255859375-4.333984375,2.255859375z M117.86513671875,113.740234375q1.599609375,0,2.3447265625-0.9296875t0.8134765625-3.158203125l0-0.451171875q0-2.4609375-0.7587890625-3.52734375t-2.4677734375-1.06640625q-1.39453125,0-2.1669921875,1.1826171875t-0.7724609375,3.4384765625t0.779296875,3.3837890625t2.228515625,1.1279296875z M131.0280078125,97.552734375q0-2.037109375,2.26953125-2.037109375t2.26953125,2.037109375q0,0.970703125-0.5673828125,1.5107421875t-1.7021484375,0.5400390625q-2.26953125,0-2.26953125-2.05078125z M135.3756640625,116.7890625l-4.169921875,0l0-15.28515625l4.169921875,0l0,15.28515625z M150.12447265625,104.634765625l-3.609375,0l0,12.154296875l-4.169921875,0l0-12.154296875l-2.296875,0l0-2.009765625l2.296875-1.12109375l0-1.12109375q0-2.611328125,1.28515625-3.814453125t4.115234375-1.203125q2.16015625,0,3.841796875,0.642578125l-1.06640625,3.0625q-1.2578125-0.396484375-2.32421875-0.396484375q-0.888671875,0-1.28515625,0.5263671875t-0.396484375,1.3466796875l0,0.95703125l3.609375,0l0,3.130859375z M152.254140625,101.50390625l4.56640625,0l2.884765625,8.599609375q0.369140625,1.12109375,0.505859375,2.65234375l0.08203125,0q0.150390625-1.408203125,0.587890625-2.65234375l2.830078125-8.599609375l4.470703125,0l-6.466796875,17.240234375q-0.888671875,2.392578125-2.5361328125,3.58203125t-3.8486328125,1.189453125q-1.080078125,0-2.119140625-0.232421875l0-3.30859375q0.751953125,0.177734375,1.640625,0.177734375q1.107421875,0,1.9345703125-0.6767578125t1.2919921875-2.0439453125l0.24609375-0.751953125z"/><path fill="#" d=""/></svg>
